<svg width="47" height="47" viewBox="0 0 47 47" fill="none" xmlns="http://www.w3.org/2000/svg">
<path d="M12.0193 29.4923C11.5071 29.4923 11.0158 29.2888 10.6536 28.9266C10.2914 28.5644 10.0879 28.0731 10.0879 27.5609V19.8352C10.0879 19.323 10.2914 18.8317 10.6536 18.4695C11.0158 18.1073 11.5071 17.9038 12.0193 17.9038H23.608V29.4923H12.0193Z" fill="white"/>
<path fill-rule="evenodd" clip-rule="evenodd" d="M35.198 12.1108H10.0892C8.55249 12.1108 7.07869 12.7213 5.99204 13.8079C4.90539 14.8946 4.29492 16.3683 4.29492 17.9051V29.4935C4.29492 31.0303 4.90539 32.504 5.99204 33.5907C7.07869 34.6773 8.55249 35.2878 10.0892 35.2878H35.198C36.7347 35.2878 38.2085 34.6773 39.2952 33.5907C40.3818 32.504 40.9923 31.0303 40.9923 29.4935C41.5045 29.4935 41.9958 29.29 42.358 28.9278C42.7202 28.5656 42.9237 28.0744 42.9237 27.5621V19.8365C42.9237 19.3242 42.7202 18.833 42.358 18.4708C41.9958 18.1086 41.5045 17.9051 40.9923 17.9051C40.9923 16.3683 40.3818 14.8946 39.2952 13.8079C38.2085 12.7213 36.7347 12.1108 35.198 12.1108ZM35.198 15.9737H10.0892C9.57699 15.9737 9.08572 16.1771 8.72351 16.5394C8.36129 16.9016 8.1578 17.3928 8.1578 17.9051V29.4935C8.1578 30.0058 8.36129 30.497 8.72351 30.8592C9.08572 31.2214 9.57699 31.4249 10.0892 31.4249H35.198C35.7102 31.4249 36.2015 31.2214 36.5637 30.8592C36.9259 30.497 37.1294 30.0058 37.1294 29.4935V17.9051C37.1294 17.3928 36.9259 16.9016 36.5637 16.5394C36.2015 16.1771 35.7102 15.9737 35.198 15.9737Z" fill="white"/>
</svg>
