<svg width="50" height="51" viewBox="0 0 50 51" fill="none" xmlns="http://www.w3.org/2000/svg">
<path d="M24.9603 8.68018C27.1669 8.68018 29.2831 9.55674 30.8434 11.117C32.4037 12.6773 33.2803 14.7936 33.2803 17.0002C33.2803 19.2068 32.4037 21.323 30.8434 22.8833C29.2831 24.4436 27.1669 25.3202 24.9603 25.3202C22.7537 25.3202 20.6375 24.4436 19.0772 22.8833C17.5169 21.323 16.6403 19.2068 16.6403 17.0002C16.6403 14.7936 17.5169 12.6773 19.0772 11.117C20.6375 9.55674 22.7537 8.68018 24.9603 8.68018ZM24.9603 41.9602C24.9603 41.9602 41.6003 41.9602 41.6003 37.8002C41.6003 32.8082 33.4883 27.4002 24.9603 27.4002C16.4323 27.4002 8.32031 32.8082 8.32031 37.8002C8.32031 41.9602 24.9603 41.9602 24.9603 41.9602Z" fill="white"/>
</svg>
