<svg width="63" height="64" viewBox="0 0 63 64" fill="none" xmlns="http://www.w3.org/2000/svg">
<path fill-rule="evenodd" clip-rule="evenodd" d="M23.6805 11.8398C22.3226 11.8398 21.0203 12.3793 20.0602 13.3395C19.1 14.2996 18.5605 15.6019 18.5605 16.9598L18.5605 47.6799C18.5605 49.0378 19.1 50.3401 20.0602 51.3002C21.0203 52.2604 22.3226 52.7999 23.6805 52.7999H39.0405C40.3985 52.7999 41.7007 52.2604 42.6609 51.3002C43.6211 50.3401 44.1605 49.0378 44.1605 47.6799V16.9598C44.1605 15.6019 43.6211 14.2996 42.6609 13.3395C41.7007 12.3793 40.3985 11.8398 39.0405 11.8398L23.6805 11.8398ZM31.3605 47.6799C32.0395 47.6799 32.6906 47.4101 33.1707 46.93C33.6508 46.45 33.9205 45.7988 33.9205 45.1199C33.9205 44.4409 33.6508 43.7898 33.1707 43.3097C32.6906 42.8296 32.0395 42.5599 31.3605 42.5599C30.6816 42.5599 30.0304 42.8296 29.5504 43.3097C29.0703 43.7898 28.8005 44.4409 28.8005 45.1199C28.8005 45.7988 29.0703 46.45 29.5504 46.93C30.0304 47.4101 30.6816 47.6799 31.3605 47.6799Z" fill="white"/>
</svg>
