<svg width="48" height="47" viewBox="0 0 48 47" fill="none" xmlns="http://www.w3.org/2000/svg">
<g clip-path="url(#clip0_907_5)">
<path d="M23.8785 41.0823C22.5265 41.0823 21.3837 40.6155 20.4502 39.682C19.5166 38.7485 19.0499 37.6057 19.0499 36.2537C19.0499 34.9017 19.5166 33.759 20.4502 32.8255C21.3837 31.892 22.5265 31.4252 23.8785 31.4252C25.2305 31.4252 26.3732 31.892 27.3068 32.8255C28.2403 33.759 28.7071 34.9017 28.7071 36.2537C28.7071 37.6057 28.2403 38.7485 27.3068 39.682C26.3732 40.6155 25.2305 41.0823 23.8785 41.0823ZM12.9658 30.1698L8.90979 26.0173C10.809 24.118 13.0386 22.6135 15.5984 21.5036C18.1582 20.3936 20.9182 19.838 23.8785 19.8367C26.84 19.8367 29.6007 20.4001 32.1605 21.5267C34.7203 22.6534 36.9492 24.1824 38.8471 26.1138L34.7911 30.1698C33.3747 28.7534 31.733 27.6429 29.8659 26.8381C27.9989 26.0334 26.003 25.631 23.8785 25.631C21.7539 25.631 19.7581 26.0334 17.891 26.8381C16.0239 27.6429 14.3822 28.7534 12.9658 30.1698ZM4.7572 21.9613L0.701172 17.9053C3.66271 14.8795 7.12321 12.5135 11.0827 10.8074C15.0421 9.10133 19.3074 8.24829 23.8785 8.24829C28.4495 8.24829 32.7148 9.10133 36.6743 10.8074C40.6337 12.5135 44.0942 14.8795 47.0557 17.9053L42.9997 21.9613C40.521 19.4827 37.6477 17.5429 34.3797 16.142C31.1117 14.741 27.6113 14.0412 23.8785 14.0425C20.1443 14.0425 16.6433 14.743 13.3753 16.1439C10.1073 17.5448 7.23459 19.4839 4.7572 21.9613Z" fill="white"/>
</g>
<defs>
<clipPath id="clip0_907_5">
<rect width="46.3546" height="46.3538" fill="white" transform="translate(0.701172 0.523193)"/>
</clipPath>
</defs>
</svg>
