<svg width="40" height="40" viewBox="0 0 40 40" fill="none" xmlns="http://www.w3.org/2000/svg">
<g clip-path="url(#clip0_907_13)">
<path d="M6.52583 33.9026C4.65805 32.0987 3.16824 29.9408 2.14334 27.555C1.11844 25.1691 0.578966 22.603 0.556402 20.0065C0.533839 17.4099 1.02863 14.8348 2.01192 12.4315C2.9952 10.0282 4.44729 7.84481 6.28344 6.00869C8.11959 4.17257 10.303 2.72051 12.7064 1.73724C15.1097 0.753969 17.6848 0.259181 20.2814 0.281744C22.878 0.304308 25.4442 0.843771 27.83 1.86866C30.2159 2.89354 32.3738 4.38332 34.1778 6.25108C37.74 9.93929 39.7112 14.8791 39.6666 20.0065C39.622 25.1339 37.5654 30.0386 33.9396 33.6644C30.3138 37.2901 25.4089 39.3468 20.2814 39.3913C15.154 39.4359 10.2141 37.4648 6.52583 33.9026ZM23.0896 20.0768L28.6239 14.5426L25.8666 11.7853L20.3518 17.3195L14.8175 11.7853L12.0601 14.5426L17.5944 20.0768L12.0601 25.611L14.8175 28.3684L20.3518 22.8342L25.8861 28.3684L28.6435 25.611L23.1092 20.0768H23.0896Z" fill="white"/>
</g>
<defs>
<clipPath id="clip0_907_13">
<rect width="39.1117" height="39.111" fill="white" transform="translate(0.796875 0.523193)"/>
</clipPath>
</defs>
</svg>
